<svg width="230" height="45" viewBox="0 0 230 45" fill="none" xmlns="http://www.w3.org/2000/svg">
<g clip-path="url(#clip0_540_3538)">
<path d="M74.2215 29.2819V35.5781H69.1981C63.4442 35.5781 59.9094 32.0434 59.9094 26.2392V15.1104H55.1797V13.5815L65.5077 2.60083H66.8609V9.42424H74.0759V15.1079H66.9789V25.3003C66.9789 27.8284 68.4324 29.2794 71.0081 29.2794H74.2215V29.2819Z" fill="white"/>
<path d="M93.464 9.28101V15.9513H90.3963C86.4122 15.9513 84.8356 17.7161 84.8356 21.9914V35.578H77.7637V9.42661H82.2975L83.5553 12.6299C85.418 10.3178 87.7804 9.28101 91.1394 9.28101H93.464Z" fill="white"/>
<path d="M125.349 8.64597V34.7999H119.806L119.199 32.4601C116.954 34.4258 114.022 35.5781 110.723 35.5781C102.856 35.5781 97.0038 29.6384 97.0038 21.7229C97.0038 13.8075 102.856 7.94556 110.723 7.94556C114.08 7.94556 117.055 9.12798 119.317 11.1439L120.072 8.64597H125.349ZM118.421 21.7229C118.421 17.6133 115.408 14.5556 111.301 14.5556C107.194 14.5556 104.174 17.6233 104.174 21.7229C104.174 25.8225 107.194 28.8902 111.301 28.8902C115.408 28.8902 118.421 25.83 118.421 21.7229Z" fill="white"/>
<path d="M157.235 8.64597V34.7999H151.692L151.084 32.4601C148.84 34.4258 145.907 35.5781 142.609 35.5781C134.741 35.5781 128.889 29.6384 128.889 21.7229C128.889 13.8075 134.741 7.94556 142.609 7.94556C145.965 7.94556 148.94 9.12798 151.202 11.1439L151.958 8.64597H157.235ZM150.306 21.7229C150.306 17.6133 147.293 14.5556 143.186 14.5556C139.079 14.5556 136.059 17.6233 136.059 21.7229C136.059 25.8225 139.079 28.8902 143.186 28.8902C147.293 28.8902 150.306 25.83 150.306 21.7229Z" fill="white"/>
<path d="M175.041 7.94556C182.919 7.94556 188.743 13.8376 188.743 21.7631C188.743 29.6886 182.919 35.6183 175.041 35.6183C172.332 35.6183 169.875 34.8199 167.846 33.4166V44.2643H160.774V8.68614H165.451L166.659 11.0635C168.878 9.09534 171.78 7.94556 175.041 7.94556ZM181.583 21.7606C181.583 17.6535 178.571 14.5932 174.464 14.5932C170.357 14.5932 167.337 17.6635 167.337 21.7606C167.337 25.8576 170.357 28.9279 174.464 28.9279C178.571 28.9279 181.583 25.8677 181.583 21.7606Z" fill="white"/>
<path d="M192.285 0H199.357V35.5781H192.285V0Z" fill="white"/>
<path d="M229.864 23.7438H210.072C210.687 27.3137 213.034 29.2794 216.464 29.2794C218.921 29.2794 220.937 28.117 222.012 26.2442H229.443C227.54 31.9455 222.534 35.5781 216.464 35.5781C208.741 35.5781 202.9 29.6007 202.9 21.7631C202.9 13.9255 208.704 7.94556 216.464 7.94556C224.223 7.94556 230.002 14.1363 230.002 21.6702C230.002 22.3606 229.955 23.0509 229.864 23.7438ZM210.258 18.9137H222.931C221.931 15.7154 219.634 13.9832 216.461 13.9832C213.288 13.9832 211.079 15.8183 210.258 18.9137Z" fill="white"/>
<path d="M22.1321 44.2643C34.3554 44.2643 44.2643 34.3554 44.2643 22.1321C44.2643 9.9089 34.3554 0 22.1321 0C9.9089 0 0 9.9089 0 22.1321C0 34.3554 9.9089 44.2643 22.1321 44.2643Z" fill="#4FC3F7"/>
<path d="M20.3648 9.69287H18.5999V34.5714H20.3648V9.69287Z" fill="white"/>
<path d="M25.6643 9.69287H23.8995V34.5714H25.6643V9.69287Z" fill="white"/>
<path d="M27.4316 26.0435V34.5715L34.4961 30.3087L27.4316 26.0435Z" fill="white"/>
<path d="M16.8352 9.69287V18.2234L9.77075 13.9581L16.8352 9.69287Z" fill="white"/>
</g>
<defs>
<clipPath id="clip0_540_3538">
<rect width="230" height="44.2643" fill="white"/>
</clipPath>
</defs>
</svg>